<svg width="512" height="512" viewBox="0 0 512 512" fill="none" xmlns="http://www.w3.org/2000/svg">
<g filter="url(#filter0_d_255_8722)">
<path d="M468.779 391.04C468.747 399.091 466.926 407.034 463.446 414.294C459.721 422.229 454.831 429.563 448.939 436.054C439.332 446.984 427.369 455.591 413.952 461.227C400.764 466.672 386.62 469.428 372.352 469.334C348.357 468.89 324.699 463.592 302.806 453.76C276.826 442.498 252.207 428.328 229.419 411.52C204.632 393.389 181.242 373.422 159.446 351.787C137.873 330.07 117.976 306.75 99.9257 282.027C83.3475 259.394 69.3244 234.997 58.1123 209.28C48.3755 187.289 43.1523 163.567 42.7523 139.52C42.6606 125.431 45.2675 111.455 50.4323 98.3469C55.8584 84.7944 64.2398 72.6232 74.9657 62.7203C80.644 56.5789 87.4972 51.6396 95.1193 48.195C102.741 44.7504 110.977 42.8706 119.339 42.6669C125.313 42.6433 131.217 43.9552 136.619 46.5069C142.381 49.1151 147.323 53.2456 150.912 58.4536L200.406 128.214C203.829 132.838 206.693 137.85 208.939 143.147C210.792 147.242 211.807 151.667 211.926 156.16C211.865 161.527 210.314 166.771 207.446 171.307C204.156 176.865 200.138 181.959 195.499 186.454L179.286 203.307C178.156 204.415 177.27 205.746 176.682 207.215C176.095 208.684 175.819 210.259 175.872 211.84C175.875 213.496 176.09 215.145 176.512 216.747C177.152 218.454 177.792 219.734 178.219 221.014C183.948 230.727 190.591 239.871 198.059 248.32C207.659 259.414 217.899 270.72 228.992 282.027C240.512 293.334 251.606 303.787 262.912 313.387C271.384 320.861 280.606 327.438 290.432 333.014C291.499 333.44 292.779 334.08 294.272 334.72C295.982 335.331 297.79 335.621 299.606 335.574C301.236 335.61 302.855 335.306 304.361 334.682C305.867 334.057 307.226 333.126 308.352 331.947L324.566 315.947C329.062 311.222 334.239 307.195 339.926 304C344.45 301.105 349.702 299.552 355.072 299.52C359.55 299.582 363.972 300.524 368.086 302.294C373.338 304.542 378.343 307.331 383.019 310.614L453.632 360.747C458.756 364.097 462.825 368.831 465.366 374.4C467.579 379.671 468.739 385.324 468.779 391.04Z" stroke="#292D32" stroke-width="23.5"/>
</g>
<defs>
<filter id="filter0_d_255_8722" x="27" y="30.9166" width="457.529" height="458.169" filterUnits="userSpaceOnUse" color-interpolation-filters="sRGB">
<feFlood flood-opacity="0" result="BackgroundImageFix"/>
<feColorMatrix in="SourceAlpha" type="matrix" values="0 0 0 0 0 0 0 0 0 0 0 0 0 0 0 0 0 0 127 0" result="hardAlpha"/>
<feOffset dy="4"/>
<feGaussianBlur stdDeviation="2"/>
<feComposite in2="hardAlpha" operator="out"/>
<feColorMatrix type="matrix" values="0 0 0 0 0 0 0 0 0 0 0 0 0 0 0 0 0 0 0.25 0"/>
<feBlend mode="normal" in2="BackgroundImageFix" result="effect1_dropShadow_255_8722"/>
<feBlend mode="normal" in="SourceGraphic" in2="effect1_dropShadow_255_8722" result="shape"/>
</filter>
</defs>
</svg>
