<svg width="25" height="24" viewBox="0 0 25 24" fill="none" xmlns="http://www.w3.org/2000/svg">
<path d="M2.9668 23.166C2.41124 23.166 1.93902 22.9783 1.55013 22.603C1.16124 22.2276 0.966797 21.7718 0.966797 21.2355V1.9305C0.966797 1.39425 1.16124 0.938438 1.55013 0.563063C1.93902 0.187688 2.41124 0 2.9668 0H16.6001V1.9305H2.9668V21.2355H22.9668V8.10811H24.9668V21.2355C24.9668 21.7718 24.7724 22.2276 24.3835 22.603C23.9946 22.9783 23.5224 23.166 22.9668 23.166H2.9668ZM20.3001 7.14286V4.53668H17.6001V2.60618H20.3001V0H22.3001V2.60618H25.0001V4.53668H22.3001V7.14286H20.3001ZM4.9668 17.9537H20.9668L16.1668 11.7761L11.9335 17.1493L8.80013 13.1596L4.9668 17.9537Z" fill="#C8C8C8"/>
</svg>
